<?xml version="1.0" encoding="utf-8"?>
<!-- Generator: Adobe Illustrator 27.0.0, SVG Export Plug-In . SVG Version: 6.00 Build 0)  -->
<svg version="1.1" id="Capa_1" xmlns="http://www.w3.org/2000/svg" xmlns:xlink="http://www.w3.org/1999/xlink" x="0px" y="0px"
	 viewBox="0 0 260.4 214.6" style="enable-background:new 0 0 260.4 214.6;" xml:space="preserve">
<style type="text/css">
	.st0{fill:#171717;}
	.st1{font-family:'Anton-Regular';}
	.st2{font-size:100px;}
	.st3{fill:#00356A;}
</style>
<g id="Grupo_31" transform="translate(680 -1690)">
	<text transform="matrix(1 0 0 1 -682.6198 1776.3925)" class="st0 st1 st2">I KINDA</text>
	<text transform="matrix(1 0 0 1 -682.6198 1876.3925)" class="st0 st1 st2">LIKE</text>
	<g id="pdf17" transform="matrix(0.966, 0.259, -0.259, 0.966, -530.483, 1803.24)">
		<path id="Trazado_1" class="st3" d="M45.7,24.7c0-2.9-2-4.6-5.5-4.6c-1,0-2,0.1-2.9,0.3v9.2c0.8,0.1,1.6,0.2,2.4,0.2
			C43.4,29.8,45.7,27.9,45.7,24.7z"/>
		<path id="Trazado_2" class="st3" d="M67.4,20.2c-1.1,0-2.1,0.1-3.2,0.3v20.4c0.8,0.1,1.6,0.2,2.5,0.1c6.4,0,10.5-3.5,10.5-10.9
			C77.3,23.6,73.5,20.2,67.4,20.2z"/>
		<path id="Trazado_3" class="st3" d="M109.1,8.2h-2.6V-4.1c0-0.1,0-0.2,0-0.2c0-0.5-0.2-1-0.5-1.4L85.5-29.1c0,0,0,0,0,0
			c-0.1-0.1-0.3-0.3-0.4-0.3c0,0-0.1-0.1-0.1-0.1c-0.1-0.1-0.3-0.1-0.4-0.2c0,0-0.1,0-0.1,0c-0.2,0-0.3-0.1-0.5-0.1H33.5
			c-2.3,0-4.2,1.9-4.2,4.2V8.2h-2.6c-3.3,0-6,2.7-6,6c0,0,0,0,0,0v31c0,3.3,2.7,6,6,6h2.6v21.2c0,2.3,1.9,4.2,4.2,4.2h68.9
			c2.3,0,4.2-1.9,4.2-4.2V51.2h2.6c3.3,0,6-2.7,6-6v-31C115.1,10.9,112.4,8.2,109.1,8.2z M33.5-25.7h48.3v21.4
			c0,1.2,0.9,2.1,2.1,2.1h18.4V8.2l-68.9,0V-25.7z M84.7,29.9c0,6-2.2,10.1-5.2,12.6c-3.3,2.7-8.3,4-14.4,4c-2.7,0-5.3-0.1-8-0.5
			V15.4c3.2-0.5,6.3-0.7,9.5-0.6c5.9,0,9.8,1.1,12.8,3.3C82.7,20.5,84.7,24.4,84.7,29.9z M30.3,46.2l0-30.8c3.2-0.5,6.3-0.7,9.5-0.6
			c4.3,0,7.4,0.8,9.5,2.5c2.2,1.8,3.4,4.4,3.3,7.2c0.1,2.8-0.9,5.4-2.9,7.4c-2.4,2.3-6,3.3-10.1,3.3c-0.8,0-1.6,0-2.4-0.1v11.1H30.3
			z M102.4,71.3H33.5V51.2h68.9V71.3z M108.4,20.8h-12v7.1h11.2v5.7H96.4v12.5h-7.1V15h19.1L108.4,20.8z"/>
	</g>
</g>
</svg>
