<?xml version="1.0" encoding="utf-8"?>
<!-- Generator: Adobe Illustrator 27.0.0, SVG Export Plug-In . SVG Version: 6.00 Build 0)  -->
<svg version="1.1" id="Componente_1_1" xmlns="http://www.w3.org/2000/svg" xmlns:xlink="http://www.w3.org/1999/xlink" x="0px"
	 y="0px" viewBox="0 0 281 94" style="enable-background:new 0 0 281 94;" xml:space="preserve">
<style type="text/css">
	.st0{enable-background:new    ;}
	.st1{fill:#171717;}
	.st2{fill:#00356A;}
</style>
<g class="st0">
	<path class="st1" d="M1.3,59.8v-37h7.1v37H1.3z"/>
	<path class="st1" d="M21.5,59.8v-37h7.3v14.8l3.4-14.8h7.4l-4.1,16.9l5,20h-7.7l-4-17.9v17.9H21.5z"/>
	<path class="st1" d="M41.4,59.8v-37h7.1v37H41.4z"/>
	<path class="st1" d="M51.5,59.8v-37h7.6l3.4,17.7V22.8h7.1v37h-7.2l-3.7-18.5v18.5H51.5z"/>
	<path class="st1" d="M72.9,59.8v-37h10.2c2.7,0,4.7,0.7,6,2.2c1.3,1.5,2,3.6,2,6.5v17.3c0,3.5-0.6,6.2-1.8,8.1
		c-1.2,1.9-3.4,2.9-6.4,2.9H72.9z M80.4,53.2h1.3c1.4,0,2-0.7,2-2V32.2c0-1.2-0.2-2-0.5-2.4c-0.3-0.4-1-0.5-2-0.5h-0.8V53.2z"/>
	<path class="st1" d="M93.1,59.8l3.6-37h12.5l3.5,37h-7l-0.5-6h-4.5l-0.5,6H93.1z M101.3,47.9h3.4L103,29.1h-0.3L101.3,47.9z"/>
	<path class="st1" d="M125.1,59.8v-37h7.4v30.7h7.6v6.3H125.1z"/>
	<path class="st1" d="M141.8,59.8v-37h7.1v37H141.8z"/>
	<path class="st1" d="M151.9,59.8v-37h7.3v14.8l3.4-14.8h7.4L166,39.7l5,20h-7.7l-4-17.9v17.9H151.9z"/>
	<path class="st1" d="M172.2,59.8v-37H187v7.1h-7.3v7.2h7v7h-7v8.5h7.7v7.2H172.2z"/>
</g>
<g id="pdf17" transform="matrix(0.966, 0.259, -0.259, 0.966, 213.724, 0)">
	<path id="Trazado_1" class="st2" d="M18.4,40.3c0-2.1-1.5-3.4-4.1-3.4c-0.7,0-1.4,0-2.2,0.2v6.8c0.6,0.1,1.2,0.2,1.7,0.1
		C16.7,44.1,18.4,42.6,18.4,40.3z"/>
	<path id="Trazado_2" class="st2" d="M34.5,37c-0.8,0-1.6,0-2.4,0.2v15.1c0.6,0.1,1.2,0.1,1.8,0.1c4.7,0,7.8-2.6,7.8-8.1
		C41.7,39.5,38.9,37,34.5,37z"/>
	<path id="Trazado_3" class="st2" d="M65.2,28.1h-1.9V19c0-0.1,0-0.1,0-0.2c0-0.4-0.1-0.7-0.4-1L47.8,0.5c0,0,0,0,0,0
		c-0.1-0.1-0.2-0.2-0.3-0.3c0,0-0.1,0-0.1-0.1c-0.1-0.1-0.2-0.1-0.3-0.1c0,0-0.1,0-0.1,0c-0.1,0-0.2,0-0.4,0L9.4,0
		C7.7,0,6.3,1.4,6.3,3.1v25H4.4c-2.4,0-4.4,2-4.4,4.4c0,0,0,0,0,0l0,22.9c0,2.4,2,4.4,4.4,4.4h1.9v15.7c0,1.7,1.4,3.1,3.1,3.1h50.9
		c1.7,0,3.1-1.4,3.1-3.1V59.9h1.9c2.4,0,4.4-2,4.4-4.4V32.5C69.6,30.1,67.7,28.1,65.2,28.1z M9.4,3.1h35.7v15.8
		c0,0.8,0.7,1.5,1.5,1.5h13.6v7.7H9.4V3.1z M47.2,44.1c0,4.4-1.6,7.4-3.8,9.3c-2.4,2-6.1,3-10.6,3c-2,0-4-0.1-5.9-0.3V33.5
		c2.3-0.3,4.7-0.5,7-0.5c4.4,0,7.2,0.8,9.4,2.5C45.7,37.2,47.2,40.1,47.2,44.1z M7,56.2V33.5c2.3-0.4,4.7-0.5,7-0.5
		c3.2,0,5.5,0.6,7,1.8c1.6,1.3,2.5,3.3,2.5,5.3c0.1,2-0.7,4-2.1,5.5C19.7,47.3,17,48,14,48c-0.6,0-1.2,0-1.8-0.1v8.2L7,56.2L7,56.2z
		 M60.3,74.7H9.4V59.9h50.9V74.7z M64.7,37.4h-8.9v5.3h8.3v4.2h-8.3v9.3h-5.2v-23h14.1V37.4z"/>
</g>
</svg>
